<?xml version="1.0" encoding="utf-8"?>
<!-- Generator: Adobe Illustrator 27.1.0, SVG Export Plug-In . SVG Version: 6.00 Build 0)  -->
<svg version="1.1" xmlns="http://www.w3.org/2000/svg" xmlns:xlink="http://www.w3.org/1999/xlink" x="0px" y="0px"
	 viewBox="0 0 72 940" style="enable-background:new 0 0 72 940;" xml:space="preserve">
<style type="text/css">
	.st0{fill:#D4ECF6;stroke:#D4ECF6;stroke-miterlimit:10;}
	.st1{fill:#202B51;stroke:#202B51;stroke-miterlimit:10;}
	.st2{fill:#E73276;stroke:#E73276;stroke-miterlimit:10;}
	.st3{opacity:0.8;}
</style>
<g id="Trapecio3">
	<polygon class="st0" points="0.5,60 61,0 61,940 0.5,879.5 	"/>
</g>
<g id="Trapecio2">
	<polygon class="st1" points="5.5,60 66,0 66,940 5.5,879.5 	"/>
</g>
<g id="Trapecio1">
	<polygon class="st2" points="11.5,60 72,0 72,940 11.5,879.5 	"/>
</g>
<g id="Detalles" class="st3">
	<rect x="36.8" y="85.3" class="st1" width="10" height="128"/>
	<rect x="36.8" y="218.2" class="st1" width="10" height="19"/>
	<rect x="36.8" y="242.2" class="st1" width="10" height="16"/>
	<rect x="36.8" y="263.2" class="st1" width="10" height="13"/>
	<rect x="36.8" y="281.2" class="st1" width="10" height="10"/>
	<rect x="36.8" y="295.6" class="st1" width="10" height="7"/>
	
		<rect x="36.8" y="725.9" transform="matrix(-1 -1.224647e-16 1.224647e-16 -1 83.5484 1579.8064)" class="st1" width="10" height="128"/>
	
		<rect x="36.8" y="702" transform="matrix(-1 -1.224647e-16 1.224647e-16 -1 83.5484 1423.0322)" class="st1" width="10" height="19"/>
	
		<rect x="36.8" y="681" transform="matrix(-1 -1.224647e-16 1.224647e-16 -1 83.5484 1378.0483)" class="st1" width="10" height="16"/>
	
		<rect x="36.8" y="663" transform="matrix(-1 -1.224647e-16 1.224647e-16 -1 83.5484 1339.0807)" class="st1" width="10" height="13"/>
	
		<rect x="36.8" y="648" transform="matrix(-1 -1.224647e-16 1.224647e-16 -1 83.5484 1306.0483)" class="st1" width="10" height="10"/>
	
		<rect x="36.8" y="636.6" transform="matrix(-1 -1.224647e-16 1.224647e-16 -1 83.5484 1280.1774)" class="st1" width="10" height="7"/>
</g>
</svg>
