<?xml version="1.0" encoding="utf-8"?>
<!-- Generator: Adobe Illustrator 27.1.0, SVG Export Plug-In . SVG Version: 6.00 Build 0)  -->
<svg version="1.1" xmlns="http://www.w3.org/2000/svg" xmlns:xlink="http://www.w3.org/1999/xlink" x="0px" y="0px"
	 viewBox="0 0 994 814" style="enable-background:new 0 0 994 814;" xml:space="preserve">
<style type="text/css">
	.st0{opacity:5.000000e-02;fill:#94B1BE;}
	.st1{fill:none;stroke:#E83276;stroke-width:3;stroke-miterlimit:10;}
	.st2{fill:none;stroke:#E83276;stroke-width:3;stroke-miterlimit:10;stroke-dasharray:234.6311,87.9867;}
	.st3{fill:none;stroke:#E83276;stroke-width:3;stroke-miterlimit:10;stroke-dasharray:307.2303,115.2114;}
	.st4{fill:none;stroke:#E83276;stroke-width:3;stroke-miterlimit:10;stroke-dasharray:220.8299,82.8112;}
	.st5{fill:none;stroke:#E83276;stroke-width:3;stroke-miterlimit:10;stroke-dasharray:110,80;}
</style>
<g id="Capa_3">
	<polyline class="st0" points="531,23.4 730.8,23.4 751,0.1 962.1,1.5 992.7,25.9 992.7,812.4 55.1,812.4 2.8,760 2.8,23.4 
		201.6,23.4 	"/>
</g>
<g id="Capa_1">
	<g>
		<g>
			<polyline class="st1" points="201.6,23.4 2.8,23.4 2.8,223.4 			"/>
			<line class="st2" x1="2.8" y1="311.4" x2="2.8" y2="590"/>
			<polyline class="st1" points="2.8,634 2.8,760 55.1,812.4 255.1,812.4 			"/>
			<line class="st3" x1="370.3" y1="812.4" x2="735.1" y2="812.4"/>
			<polyline class="st1" points="792.7,812.4 992.7,812.4 992.7,612.4 			"/>
			<line class="st4" x1="992.7" y1="529.6" x2="992.7" y2="267.3"/>
			<line class="st1" x1="992.7" y1="225.9" x2="992.7" y2="25.9"/>
		</g>
	</g>
</g>
<g id="Capa_2">
	<polyline class="st5" points="992.7,225 992.7,25.9 962.1,1.5 751,0.1 730.8,23.4 531,23.4 	"/>
</g>
</svg>
